<svg xmlns="http://www.w3.org/2000/svg" viewBox="0 0 100 100">
  <rect width="100" height="100" fill="#050713" rx="16"/>
  <g transform="translate(50,50) scale(0.7) translate(-50,-50)">
    <g transform="rotate(0,50,50)"><path d="M46,48 C40,45 36,38 36,28 C36,18 42,8 50,5 C58,8 64,18 64,28 C64,38 60,45 54,48 Z" fill="#35D5F4"/></g>
    <g transform="rotate(60,50,50)"><path d="M46,48 C40,45 36,38 36,28 C36,18 42,8 50,5 C58,8 64,18 64,28 C64,38 60,45 54,48 Z" fill="#35D5F4"/></g>
    <g transform="rotate(120,50,50)"><path d="M46,48 C40,45 36,38 36,28 C36,18 42,8 50,5 C58,8 64,18 64,28 C64,38 60,45 54,48 Z" fill="#F13CA8"/></g>
    <path d="M73,64 Q85,66 92,82" stroke="#F13CA8" stroke-width="4.5" stroke-linecap="round" fill="none"/>
    <g transform="rotate(180,50,50)"><path d="M46,48 C40,45 36,38 36,28 C36,18 42,8 50,5 C58,8 64,18 64,28 C64,38 60,45 54,48 Z" fill="#735CFF"/></g>
    <g transform="rotate(240,50,50)"><path d="M46,48 C40,45 36,38 36,28 C36,18 42,8 50,5 C58,8 64,18 64,28 C64,38 60,45 54,48 Z" fill="#735CFF"/></g>
    <g transform="rotate(300,50,50)"><path d="M46,48 C40,45 36,38 36,28 C36,18 42,8 50,5 C58,8 64,18 64,28 C64,38 60,45 54,48 Z" fill="#35D5F4"/></g>
    <circle cx="50" cy="50" r="2.8" fill="#21D6A0"/>
  </g>
</svg>
